<svg xmlns="http://www.w3.org/2000/svg" viewBox="0 0 30 30"><path fill="#303C42" d="M25.5 26a.5.5 0 0 0 .5-.5V.5a.5.5 0 0 0-.5-.5H6C4.897 0 4 .897 4 2v25.5C4 28.878 5.121 30 6.5 30h19a.5.5 0 1 0 0-1c-.124 0-.5-.532-.5-1.5s.376-1.5.5-1.5zM7.342 9.026a.498.498 0 0 1 .632.316L8 9.419V5.5a.5.5 0 0 1 .5-.5h14a.5.5 0 0 1 .5.5v2a.5.5 0 1 1-1 0V6H9v6.5a.5.5 0 0 1-.974.158l-1-3a.5.5 0 0 1 .316-.632zM20.9 11.2a.5.5 0 1 1-.8.6L19 10.333 17.9 11.8a.498.498 0 0 1-.7.1.5.5 0 0 1-.1-.7l1.275-1.7L17.1 7.8a.5.5 0 1 1 .8-.6L19 8.667 20.1 7.2a.5.5 0 0 1 .8.6l-1.275 1.7 1.275 1.7zM14 10a.5.5 0 1 1 0-1h.5v-.5a.5.5 0 1 1 1 0V9h.5a.5.5 0 1 1 0 1h-.5v.5a.5.5 0 1 1-1 0V10H14zm-3.053-.276a.5.5 0 1 1-.894-.448l1-2A.499.499 0 0 1 12 7.5v4a.5.5 0 1 1-1 0V9.618l-.053.106zM24.283 29H6.5c-.827 0-1.5-.673-1.5-1.5S5.673 26 6.5 26h17.783c-.18.412-.283.928-.283 1.5s.104 1.088.283 1.5z"/></svg>